HIERARCHY
ROOT root
{
	OFFSET	0	13.1	24.9
	CHANNELS 6  Xposition Yposition Zposition Xrotation Yrotation Zrotation
	JOINT spine_1
	{
		OFFSET	0	9.99999	0
		CHANNELS 3  Xrotation Yrotation Zrotation
		JOINT spine_2
		{
			OFFSET	0	112	-10
			CHANNELS 3  Xrotation Yrotation Zrotation
			JOINT spine_3
			{
				OFFSET	0	206.5	19.3
				CHANNELS 3  Xrotation Yrotation Zrotation
				JOINT spine_4
				{
					OFFSET	0	110.4	14.6
					CHANNELS 3  Xrotation Yrotation Zrotation
					JOINT neck_1
					{
						OFFSET	0	71.8	-50.3
						CHANNELS 3  Xrotation Yrotation Zrotation
						JOINT neck_2
						{
							OFFSET	0	86.2	-25.8
							CHANNELS 3  Xrotation Yrotation Zrotation
							JOINT head_ee
							{
								OFFSET	0	179.8	-8.7
								CHANNELS 3  Xrotation Yrotation Zrotation
								End Site
								{
									OFFSET	1	0	0
								}
							}
						}
					}
					JOINT left_clavicle
					{
						OFFSET	-43.2	22.4	-70.8
						CHANNELS 3  Xrotation Yrotation Zrotation
						JOINT left_shoulder
						{
							OFFSET	-93.9	-5.79999	48.7
							CHANNELS 3  Xrotation Yrotation Zrotation
							JOINT left_elbow
							{
								OFFSET	-291.4	-30.8	15.2
								CHANNELS 3  Xrotation Yrotation Zrotation
								JOINT left_lowarm_twist
								{
									OFFSET	-110.7	-3.89999	13.6
									CHANNELS 3  Xrotation Yrotation Zrotation
									JOINT left_hand
									{
										OFFSET	-110.7	-3.89999	13.6
										CHANNELS 3  Xrotation Yrotation Zrotation
										JOINT left_ee
										{
											OFFSET	-80.8	-5.10001	12.1
											CHANNELS 3  Xrotation Yrotation Zrotation
											End Site
											{
												OFFSET	1	0	0
											}
										}
									}
								}
							}
						}
					}
					JOINT right_clavicle
					{
						OFFSET	43.2	22.4	-70.8
						CHANNELS 3  Xrotation Yrotation Zrotation
						JOINT right_shoulder
						{
							OFFSET	93.9	-5.79999	48.7
							CHANNELS 3  Xrotation Yrotation Zrotation
							JOINT right_elbow
							{
								OFFSET	291.4	-30.8	15.2
								CHANNELS 3  Xrotation Yrotation Zrotation
								JOINT right_lowarm_twist
								{
									OFFSET	110.7	-3.89999	13.6
									CHANNELS 3  Xrotation Yrotation Zrotation
									JOINT right_hand
									{
										OFFSET	110.7	-3.89999	13.6
										CHANNELS 3  Xrotation Yrotation Zrotation
										JOINT right_ee
										{
											OFFSET	80.8	-5.10001	12.1
											CHANNELS 3  Xrotation Yrotation Zrotation
											End Site
											{
												OFFSET	1	0	0
											}
										}
									}
								}
							}
						}
					}
				}
			}
		}
	}
	JOINT left_hip
	{
		OFFSET	-82.8	-127.5	0.300001
		CHANNELS 3  Xrotation Yrotation Zrotation
		JOINT left_knee
		{
			OFFSET	-28.2	-396.7	2.2
			CHANNELS 3  Xrotation Yrotation Zrotation
			JOINT left_ankle
			{
				OFFSET	-11.7	-411.3	35.4
				CHANNELS 3  Xrotation Yrotation Zrotation
				JOINT left_toes
				{
					OFFSET	0	-60	-88.6
					CHANNELS 3  Xrotation Yrotation Zrotation
					JOINT left_foot_ee
					{
						OFFSET	-22.5	-16.5	-42.2
						CHANNELS 3  Xrotation Yrotation Zrotation
						End Site
						{
							OFFSET	1	0	0
						}
					}
				}
			}
		}
	}
	JOINT right_hip
	{
		OFFSET	82.8	-127.5	0.300001
		CHANNELS 3  Xrotation Yrotation Zrotation
		JOINT right_knee
		{
			OFFSET	28.2	-396.7	2.2
			CHANNELS 3  Xrotation Yrotation Zrotation
			JOINT right_ankle
			{
				OFFSET	11.7	-411.3	35.4
				CHANNELS 3  Xrotation Yrotation Zrotation
				JOINT right_toes
				{
					OFFSET	0	-60	-88.6
					CHANNELS 3  Xrotation Yrotation Zrotation
					JOINT right_foot_ee
					{
						OFFSET	22.5	-16.5	-42.2
						CHANNELS 3  Xrotation Yrotation Zrotation
						End Site
						{
							OFFSET	1	0	0
						}
					}
				}
			}
		}
	}
}
MOTION
Frames: 11
Frame Time: 0.02
2847.6 735.604 -1427.71 6.35578 60.831 -10.9534 -0.766982 0.561895 3.57331 -0.759941 0.333528 3.60177 -0.733748 -0.477284 3.58557 -0.751673 0.0945964 3.61593 -4.41355 20.5465 3.60175 -4.04391 35.1016 7.02437 -0.0 0.0 -0.0 0.213447 13.352 1.92548 -0.512957 -23.3352 50.1412 1.71039 -40.2704 0.627146 -32.1614 -2.15869 3.44277 -2.65453 15.5445 -10.0851 -0.0 0.0 -0.0 13.1764 24.3585 -26.2695 -15.6056 29.8762 -63.3348 0.196586 5.56223 -0.00954976 24.5865 -0.201717 3.11022 -0.12691 -12.8908 -4.50374 0.0 0.0 0.0 -9.08247 43.4058 7.36915 -1.77354 0.0689513 0.263432 27.0802 -20.5185 -4.00056 -37.0439 0.0 0.0 -0.0 0.0 -0.0 16.9782 21.0138 -0.268551 -58.2348 2.01242 -8.3281 6.16842 -25.487 0.930134 -12.9409 0.0 0.0 0.0 0.0 0.0 
2833.91 735.773 -1423.49 6.40459 59.6339 -10.4908 -0.580897 0.517951 3.22954 -0.575149 0.311509 3.25592 -0.553449 -0.411397 3.24482 -0.568124 0.105942 3.26905 -5.66876 20.4231 3.99149 -5.47198 34.9017 7.78503 -0.0 0.0 -0.0 0.100605 13.6007 1.76828 0.699748 -23.4404 49.1511 1.91235 -43.446 0.761966 -32.6368 -2.20427 3.48327 -2.77979 15.4948 -10.899 -0.0 0.0 -0.0 12.7328 24.1105 -25.2675 -16.8224 29.4463 -63.0347 0.161983 4.5878 -0.00648863 24.5661 -0.202106 3.10765 -0.228464 -13.6021 -4.15283 0.0 0.0 0.0 -10.9116 44.5471 8.27998 -2.45884 0.0934018 0.365762 28.3448 -20.3074 -4.14551 -36.114 0.0 0.0 -0.0 0.0 -0.0 17.1412 22.1144 0.00281148 -56.3962 1.82367 -8.11659 7.96157 -18.6596 1.15934 -12.2021 0.0 0.0 0.0 0.0 0.0 
2815.51 737.112 -1411.97 6.3804 59.1078 -8.75118 -0.81339 0.338997 2.60587 -0.809629 0.17255 2.62215 -0.799007 -0.41886 2.59424 -0.808399 -0.00403848 2.62781 -3.61738 19.154 2.01241 -3.18949 33.5275 4.95039 -0.0 0.0 -0.0 1.00277 17.0417 3.55066 5.1818 -21.6956 49.2174 2.34448 -49.2631 1.07507 -30.5134 -2.00331 3.2995 -1.47232 16.695 -2.20919 -0.0 0.0 -0.0 12.9851 23.9073 -25.8723 -20.1443 23.3212 -59.147 0.188066 5.32259 -0.00874167 29.0503 -0.0947308 3.67025 -0.516816 -13.6148 -2.35099 0.0 0.0 0.0 -17.3694 54.8171 12.0801 3.48181 -0.158961 -0.510509 28.7251 -31.7063 -4.74986 -36.494 0.0 0.0 -0.0 0.0 -0.0 19.488 20.6096 -0.439065 -55.4806 1.73224 -8.00905 17.5248 -1.07726 2.43374 -5.76315 0.0 0.0 0.0 0.0 0.0 
2796.58 738.011 -1416.16 9.42377 57.6058 -11.0681 -0.972452 0.491466 2.63544 -0.968646 0.322831 2.66135 -0.950466 -0.288073 2.66533 -0.960354 0.136326 2.67738 -4.59379 18.6407 1.70268 -4.30032 33.0254 4.83833 -0.0 0.0 -0.0 0.975461 16.5359 3.46379 7.42051 -21.6216 47.9858 2.39766 -49.8971 1.11556 -30.5672 -2.00832 3.30425 -1.62046 17.4832 -2.74653 -0.0 0.0 -0.0 13.4153 26.1346 -26.6231 -23.6161 21.8651 -59.6192 0.186542 5.27969 -0.00860083 28.4853 -0.11068 3.59985 -0.312777 -12.7363 -3.26862 0.0 0.0 0.0 -23.2705 54.8163 13.5437 2.76102 -0.123506 -0.405616 30.3003 -31.9404 -4.96875 -34.5956 0.0 0.0 -0.0 0.0 -0.0 20.6818 11.0343 -1.46103 -44.5898 0.784283 -6.62852 17.0064 -1.01473 2.36746 -5.8326 0.0 0.0 0.0 0.0 0.0 
2787.34 738.521 -1417.3 8.87446 57.0782 -10.3173 -0.842831 0.43096 2.6745 -0.838889 0.259965 2.69648 -0.823622 -0.351385 2.6861 -0.833682 0.0770834 2.70787 -4.67145 18.4775 0.654191 -4.37318 33.5188 3.76318 -0.0 0.0 -0.0 0.961772 15.4174 3.34249 9.10017 -19.7799 46.1497 2.66359 -52.8329 1.32335 -30.0392 -1.95937 3.25746 -1.72909 17.7679 -3.27203 -0.0 0.0 -0.0 13.8647 25.7926 -27.7118 -25.9668 19.9596 -58.7271 0.236488 6.68185 -0.0138053 30.0351 -0.0652701 3.7926 -0.353033 -12.0527 -2.73215 0.0 0.0 0.0 -24.8453 55.1101 14.74 4.26525 -0.198995 -0.624014 31.6454 -32.089 -5.14738 -35.9113 0.0 0.0 -0.0 0.0 -0.0 21.864 13.1482 -3.7222 -41.378 0.556758 -6.1901 14.4981 -0.00571415 2.04443 -8.48281 0.0 0.0 0.0 0.0 0.0 
2774.69 741.722 -1417.74 8.91578 56.4524 -10.1685 -0.785244 0.53418 2.78853 -0.780989 0.355728 2.81684 -0.760139 -0.281837 2.82519 -0.771238 0.167701 2.83425 -5.10867 18.0862 -0.108526 -4.86174 33.4375 3.05176 -0.0 0.0 -0.0 1.14247 14.9412 3.58929 10.9879 -18.6771 45.1233 2.89587 -55.1092 1.51124 -30.232 -1.9772 3.2746 -2.07865 17.4468 -5.5533 -0.0 0.0 -0.0 14.4305 25.7119 -29.0506 -27.9806 18.0682 -58.2596 0.264076 7.45303 -0.0171997 30.7477 -0.0426417 3.8808 -0.403811 -11.1532 -2.03577 0.0 0.0 0.0 -27.6158 56.2484 16.9708 4.41324 -0.206731 -0.645394 33.29 -32.3008 -5.36156 -35.0619 0.0 0.0 -0.0 0.0 -0.0 18.5315 8.13698 -4.50158 -26.2899 -0.168197 -3.99569 5.8695 4.34957 0.865964 -12.3675 0.0 0.0 0.0 0.0 0.0 
2763.96 740.748 -1419.76 7.74406 55.6722 -8.71147 -0.581467 0.579965 2.70814 -0.577479 0.40653 2.73952 -0.555016 -0.205095 2.7619 -0.565584 0.233499 2.75965 -6.45417 17.6991 -0.996379 -6.37534 33.577 2.50509 -0.0 0.0 -0.0 1.454 13.1287 3.94584 13.6482 -17.4714 43.4762 2.9996 -56.0486 1.59681 -29.9013 -1.94667 3.24517 -2.32075 17.4881 -7.01235 -0.0 0.0 -0.0 15.2928 26.7471 -30.9593 -30.4654 15.3691 -57.6746 0.257256 7.26264 -0.0163264 31.6149 -0.0136249 3.98776 -0.470732 -9.6847 -0.991504 0.0 0.0 0.0 -30.3936 57.2035 19.1321 6.49247 -0.321259 -0.943639 34.8084 -33.1945 -5.60638 -34.4525 0.0 0.0 -0.0 0.0 -0.0 13.412 7.42382 -7.00734 -2.11356 -0.0812362 -0.314169 -2.47264 5.3824 -0.37483 -16.9735 0.0 0.0 0.0 0.0 0.0 
2745.81 737.757 -1420.27 7.68061 55.7549 -8.45352 -0.372374 0.599919 2.6303 -0.368629 0.431391 2.66311 -0.345904 -0.154182 2.69339 -0.355923 0.272968 2.68397 -6.06479 17.4882 -1.79782 -5.91606 33.7052 1.52742 -0.0 0.0 -0.0 1.40412 13.0953 3.86083 14.5583 -18.911 43.0049 3.05834 -56.561 1.64568 -30.2431 -1.97823 3.27559 -2.11057 16.9448 -5.99668 -0.0 0.0 -0.0 15.1997 26.3413 -30.793 -32.1963 13.6362 -58.2108 0.24897 7.03108 -0.0152955 31.6216 -0.0133943 3.98859 -0.491227 -10.5149 -1.21072 0.0 0.0 0.0 -30.4671 54.1986 18.5077 6.38269 -0.314941 -0.927995 33.9378 -31.8705 -5.40664 -35.6907 0.0 0.0 -0.0 0.0 -0.0 15.5552 7.11628 -7.63916 -2.32323 -0.0886607 -0.34549 0.646189 5.22767 0.0971474 -16.2269 0.0 0.0 0.0 0.0 0.0 
2732.5 738.303 -1419.2 7.79395 56.172 -9.03336 -0.500421 0.397283 2.95937 -0.495573 0.208252 2.97863 -0.481618 -0.44757 2.95219 -0.493779 0.0240742 2.98579 -6.11552 17.7022 -1.20597 -5.98582 33.684 2.18508 -0.0 0.0 -0.0 1.03125 12.7886 3.21786 15.7817 -18.7694 42.5577 3.26641 -58.2701 1.82102 -30.3939 -1.9922 3.28894 -2.49112 17.5994 -7.99905 -0.0 0.0 -0.0 14.7595 26.5647 -29.718 -31.5499 13.1321 -59.2806 0.24931 7.04058 -0.0153371 31.8206 -0.00650533 4.01307 -0.355269 -9.66223 -1.72295 0.0 0.0 0.0 -33.5753 55.7307 21.2872 6.86214 -0.342755 -0.996229 34.5002 -32.164 -5.49298 -35.5296 0.0 0.0 -0.0 0.0 -0.0 17.0137 7.45147 -8.05293 1.06835 0.0454655 0.157636 -4.14553 9.11371 -0.642455 -15.1036 0.0 0.0 0.0 0.0 0.0 
2716.3 736.308 -1421.59 7.0974 55.1728 -8.48852 -0.508117 0.843131 2.99015 -0.503379 0.651243 3.03768 -0.464975 -0.0266628 3.10652 -0.478141 0.464054 3.07182 -5.49409 17.4817 -2.83275 -5.22904 34.3676 0.2822 -0.0 0.0 -0.0 1.15232 12.74 3.41421 16.3808 -18.1751 41.8918 3.61762 -60.8222 2.12385 -30.5033 -2.00237 3.29861 -2.60328 17.5075 -8.73576 -0.0 0.0 -0.0 15.0992 25.9416 -30.6066 -33.1734 12.5897 -59.3203 0.240736 6.80078 -0.014304 31.2418 -0.0263082 3.94179 -0.360775 -7.97341 -0.978987 0.0 0.0 0.0 -37.2992 55.6575 24.0089 8.77487 -0.459386 -1.2661 34.6348 -32.8367 -5.55883 -34.7206 0.0 0.0 -0.0 0.0 -0.0 17.3359 6.94769 -10.258 5.14891 0.246012 0.751381 -4.17868 4.89407 -0.634477 -17.9147 0.0 0.0 0.0 0.0 0.0 
2702.35 732.83 -1423.42 8.07332 55.5395 -10.4855 -0.52136 0.750142 3.39357 -0.515111 0.532811 3.43436 -0.478504 -0.229828 3.4678 -0.49514 0.320394 3.46061 -5.66186 17.6203 -2.21097 -5.4411 34.1948 1.00008 -0.0 0.0 -0.0 0.873298 13.3675 3.0108 16.8785 -18.5795 41.6744 3.8789 -62.4889 2.35383 -30.4027 -1.99303 3.28973 -2.60187 17.7975 -8.57494 -0.0 0.0 -0.0 14.8971 25.7149 -30.1549 -32.2767 11.4539 -60.3526 0.219809 6.21444 -0.0119322 30.8995 -0.0376788 3.89956 -0.344842 -7.16273 -0.741026 0.0 0.0 0.0 -39.3463 54.7955 25.2963 8.53739 -0.444414 -1.23281 34.5709 -31.6575 -5.46427 -35.1579 0.0 0.0 -0.0 0.0 -0.0 17.6999 7.25283 -10.5598 7.05011 0.353815 1.02292 -4.12598 4.72801 -0.625975 -18.2429 0.0 0.0 0.0 0.0 0.0 
